<?xml version="1.0" standalone="no"?>
<!DOCTYPE svg PUBLIC "-//W3C//DTD SVG 20010904//EN"
 "http://www.w3.org/TR/2001/REC-SVG-20010904/DTD/svg10.dtd">
<svg version="1.0" xmlns="http://www.w3.org/2000/svg"
 width="209.000000pt" height="303.000000pt" viewBox="0 0 209.000000 303.000000"
 preserveAspectRatio="xMidYMid meet">
<metadata>
Created by potrace 1.15, written by Peter Selinger 2001-2017
</metadata>
<g transform="translate(0.000000,303.000000) scale(0.100000,-0.100000)"
fill="#000000" stroke="none">
<path d="M25 3005 l-25 -24 0 -1466 0 -1466 25 -24 24 -25 996 0 996 0 24 25
25 24 0 1466 0 1466 -25 24 -24 25 -996 0 -996 0 -24 -25z m1905 -1490 l0
-1355 -885 0 -885 0 0 1355 0 1355 885 0 885 0 0 -1355z"/>
<path d="M170 1515 l0 -1345 875 0 875 0 0 1345 0 1345 -875 0 -875 0 0 -1345z
m255 1257 c43 0 73 4 77 11 6 9 8 9 8 0 0 -8 14 -13 35 -13 19 0 35 5 35 11 0
8 4 8 13 1 16 -13 138 -13 155 0 8 7 12 7 12 -1 0 -6 16 -11 35 -11 19 0 35 5
35 11 0 8 4 8 13 1 16 -13 138 -13 155 0 8 7 12 7 12 -1 0 -6 16 -11 35 -11
19 0 35 5 35 11 0 8 4 8 13 1 16 -13 138 -13 155 0 8 7 12 7 12 -1 0 -6 16
-11 35 -11 19 0 35 5 35 11 0 8 4 8 13 1 6 -5 41 -10 77 -10 36 0 71 5 78 10
8 7 12 7 12 -1 0 -6 16 -11 35 -11 21 0 35 5 35 13 0 9 2 9 8 0 9 -14 142 -15
160 -1 8 7 12 7 12 0 0 -6 15 -12 33 -14 28 -3 32 -7 35 -35 2 -18 8 -33 14
-33 7 0 7 -4 0 -12 -14 -18 -14 -158 0 -158 7 0 7 -4 0 -12 -14 -18 -13 -151
1 -160 9 -6 9 -8 0 -8 -15 0 -16 -139 -1 -157 7 -9 7 -13 -1 -13 -6 0 -11 -16
-11 -35 0 -19 5 -35 11 -35 8 0 8 -4 1 -12 -14 -18 -13 -151 1 -160 9 -6 9 -8
0 -8 -8 0 -13 -14 -13 -35 0 -21 5 -35 12 -35 9 0 9 -3 0 -12 -15 -15 -15 -61
0 -76 9 -9 9 -12 0 -12 -7 0 -12 -14 -12 -35 0 -19 5 -35 11 -35 8 0 8 -4 1
-12 -14 -18 -13 -151 1 -160 9 -6 9 -8 0 -8 -15 0 -16 -139 -1 -157 7 -9 7
-13 -1 -13 -6 0 -11 -16 -11 -35 0 -21 5 -35 12 -35 9 0 9 -3 0 -12 -15 -15
-15 -61 0 -76 9 -9 9 -12 0 -12 -7 0 -12 -14 -12 -35 0 -21 5 -35 13 -35 9 0
9 -2 0 -8 -14 -9 -15 -142 -1 -159 7 -9 7 -13 -1 -13 -6 0 -11 -16 -11 -35 0
-19 5 -35 11 -35 8 0 8 -4 1 -12 -14 -18 -13 -151 1 -160 9 -6 9 -8 0 -8 -15
0 -16 -139 -1 -157 7 -9 7 -13 0 -13 -14 0 -14 -140 0 -158 7 -8 7 -12 0 -12
-6 0 -12 -15 -14 -33 -3 -28 -7 -32 -35 -35 -18 -2 -33 -8 -33 -14 0 -7 -4 -7
-12 0 -15 11 -151 14 -144 3 3 -4 -1 -8 -9 -8 -8 0 -15 4 -15 9 0 4 -16 8 -35
8 -19 0 -35 -5 -35 -11 0 -8 -4 -8 -12 -1 -7 5 -42 10 -78 10 -36 0 -71 -5
-77 -10 -9 -7 -13 -7 -13 1 0 6 -16 11 -35 11 -19 0 -35 -5 -35 -11 0 -8 -4
-8 -12 -1 -17 13 -139 13 -155 0 -9 -7 -13 -7 -13 1 0 6 -16 11 -35 11 -19 0
-35 -5 -35 -11 0 -8 -4 -8 -12 -1 -17 13 -139 13 -155 0 -9 -7 -13 -7 -13 1 0
6 -16 11 -35 11 -19 0 -35 -5 -35 -11 0 -8 -4 -8 -12 -1 -17 13 -139 13 -155
0 -9 -7 -13 -7 -13 1 0 6 -16 11 -35 11 -21 0 -35 -5 -35 -12 0 -10 -2 -10 -8
-1 -9 14 -142 15 -159 1 -9 -7 -13 -7 -13 0 0 6 -15 12 -33 14 -28 3 -32 7
-35 36 -2 17 -8 32 -14 32 -7 0 -7 4 0 12 14 18 14 158 0 158 -7 0 -7 4 0 12
14 18 13 151 -1 160 -9 6 -9 8 0 8 15 0 16 139 1 158 -7 8 -7 12 1 12 6 0 11
16 11 35 0 19 -5 35 -11 35 -8 0 -8 4 -1 13 14 17 13 150 -1 159 -9 6 -9 8 1
8 7 0 12 14 12 35 0 21 -5 35 -12 35 -9 0 -9 3 0 12 15 15 15 61 0 76 -9 9 -9
12 0 12 7 0 12 14 12 35 0 19 -5 35 -11 35 -8 0 -8 4 -1 13 14 17 13 150 -1
159 -9 6 -9 8 0 8 15 0 16 139 1 158 -7 8 -7 12 1 12 6 0 11 16 11 35 0 21 -5
35 -12 35 -9 0 -9 3 0 12 15 15 15 61 0 76 -9 9 -9 12 0 12 7 0 12 14 12 35 0
21 -5 35 -12 35 -10 0 -10 2 -1 8 14 9 15 142 1 160 -7 8 -7 12 1 12 6 0 11
16 11 35 0 19 -5 35 -11 35 -8 0 -8 4 -1 13 14 17 13 150 -1 159 -9 6 -9 8 0
8 15 0 16 139 1 158 -7 8 -7 12 0 12 14 0 14 140 0 158 -7 8 -7 12 0 12 6 0
12 15 14 33 3 28 7 32 36 35 17 2 32 8 32 14 0 7 4 7 13 0 6 -5 43 -10 82 -10z"/>
<path d="M270 1515 l0 -1245 775 0 775 0 0 1245 0 1245 -775 0 -775 0 0 -1245z
m268 1213 c-2 -7 7 -14 20 -16 12 -2 20 -8 17 -13 -7 -11 12 -11 39 0 19 7 19
8 -2 13 -32 9 -27 25 8 25 23 0 29 -4 25 -15 -3 -9 0 -19 7 -24 9 -5 6 -8 -10
-8 -23 0 -62 -18 -74 -35 -5 -6 -8 -4 -8 5 0 11 -3 11 -12 2 -7 -7 -21 -12
-33 -12 -28 0 -65 -27 -64 -48 0 -12 3 -11 9 6 5 12 14 22 19 22 18 0 -22 -56
-51 -73 -15 -9 -28 -12 -28 -7 0 5 8 14 18 19 9 6 12 11 5 11 -17 0 -43 -40
-43 -67 0 -13 -5 -23 -11 -23 -8 0 -8 -5 1 -15 7 -8 8 -15 2 -15 -9 0 -16 -15
-32 -70 l-8 -25 -1 28 c0 16 4 38 10 49 9 18 9 20 -4 15 -11 -4 -17 1 -19 16
-2 12 -9 21 -16 20 -6 -2 -12 2 -12 7 0 7 13 8 35 4 33 -6 35 -5 41 25 4 17
18 41 33 53 l26 21 -24 -6 c-14 -3 -30 -2 -37 4 -9 7 -10 -1 -7 -34 3 -25 1
-47 -5 -51 -16 -10 -42 4 -42 23 1 14 2 14 14 -2 10 -12 16 -15 21 -7 9 14 -2
60 -15 60 -5 0 -6 -7 -3 -17 4 -11 3 -14 -5 -9 -13 8 -12 56 1 56 5 0 8 12 5
28 -5 35 19 58 55 54 15 -2 27 0 27 5 0 13 48 14 56 1 5 -8 2 -9 -11 -4 -15 5
-16 4 -5 -9 13 -15 42 -20 53 -8 4 3 -1 12 -11 19 -15 12 -15 13 -1 14 18 0
33 -26 23 -42 -3 -5 -23 -8 -43 -5 -36 4 -37 3 -38 -30 l-1 -33 19 24 c10 13
33 26 50 30 30 6 31 8 25 41 -4 22 -3 35 4 35 5 0 9 -6 8 -12z m962 1 c0 -4
-10 -11 -22 -15 -22 -7 -22 -7 -3 -15 28 -11 47 -11 40 0 -3 5 5 11 17 13 13
2 22 9 21 16 -2 6 2 12 7 12 7 0 8 -13 4 -35 -6 -33 -5 -35 25 -41 17 -4 40
-17 50 -30 l19 -24 -1 33 c-1 33 -2 34 -38 30 -20 -3 -40 0 -43 5 -10 16 5 42
23 42 14 -1 14 -2 -1 -14 -10 -7 -15 -16 -11 -19 11 -12 40 -7 53 8 11 13 10
14 -6 9 -15 -6 -17 -4 -7 6 10 10 18 10 42 1 16 -7 38 -11 48 -9 26 5 49 -23
45 -54 -3 -16 0 -28 5 -28 13 0 14 -48 1 -56 -8 -5 -9 -2 -5 9 3 10 2 17 -3
17 -13 0 -24 -46 -15 -60 5 -8 11 -5 21 7 12 16 13 16 14 2 0 -19 -26 -33 -42
-23 -6 4 -8 26 -5 51 3 33 2 41 -7 34 -7 -6 -23 -7 -37 -4 l-24 6 26 -21 c15
-12 29 -36 33 -53 6 -30 8 -31 41 -25 22 4 35 3 35 -4 0 -5 -6 -9 -12 -8 -7 2
-14 -7 -16 -19 -2 -15 -8 -20 -19 -16 -13 5 -13 3 -4 -15 6 -11 10 -33 10 -49
l-1 -28 -8 25 c-16 55 -23 70 -32 70 -6 0 -5 7 2 15 9 10 9 15 1 15 -6 0 -11
10 -11 23 0 27 -26 67 -43 67 -7 0 -4 -5 6 -11 9 -5 17 -14 17 -19 0 -5 -13
-2 -28 7 -29 17 -69 73 -52 73 5 0 14 -8 19 -17 6 -10 11 -13 11 -6 0 16 -40
43 -65 43 -12 0 -26 5 -33 12 -9 9 -12 9 -12 -2 0 -9 -3 -11 -8 -5 -12 17 -51
35 -74 35 -16 0 -19 3 -10 8 7 5 10 15 7 24 -4 11 2 15 25 15 16 0 30 -4 30
-8z m120 -1214 l0 -1045 -422 2 -423 3 418 2 417 3 0 1035 0 1035 -565 0 -565
0 0 -1035 0 -1034 138 -4 137 -3 -142 -2 -143 -2 0 1045 0 1045 575 0 575 0 0
-1045z m-726 1007 c50 -7 64 -14 87 -41 50 -61 61 -156 32 -286 -16 -75 -16
-77 7 -148 23 -68 23 -75 12 -192 -8 -83 -9 -138 -2 -180 5 -33 10 -62 10 -64
0 -2 2 -2 5 1 18 18 24 133 13 243 -11 117 -11 124 12 192 23 71 23 73 7 148
-29 130 -18 225 32 286 30 36 75 47 213 52 74 2 71 -8 -5 -18 -52 -8 -48 -25
6 -25 15 0 27 -4 27 -10 0 -5 5 -10 11 -10 5 0 7 5 4 10 -7 12 42 33 56 24 5
-3 9 -1 9 4 0 5 7 9 15 9 25 0 17 -12 -16 -24 -18 -7 -37 -9 -43 -6 -6 4 -5
-1 2 -9 8 -9 23 -19 35 -21 12 -2 1 -5 -25 -6 l-47 -1 9 -30 c11 -38 0 -38
-22 0 -13 23 -24 30 -49 30 -24 0 -30 -3 -25 -16 9 -24 -12 -54 -37 -54 -29 0
-47 18 -47 45 0 12 5 26 12 33 9 9 7 12 -10 12 -11 0 -31 -10 -42 -22 -21 -23
-50 -105 -50 -144 0 -12 -6 -25 -12 -27 -8 -3 -6 -6 5 -6 17 -1 25 -35 10 -44
-5 -2 -3 -3 3 -1 6 1 16 -2 22 -8 6 -6 18 -8 26 -5 20 8 21 37 2 37 -22 0 -25
22 -9 54 10 18 13 43 10 65 -6 33 -5 35 8 17 8 -11 15 -34 15 -51 0 -39 16
-55 49 -49 16 3 34 -1 46 -11 11 -9 14 -14 7 -10 -7 4 -26 4 -42 0 -28 -6 -30
-10 -30 -50 0 -53 -26 -77 -74 -69 -22 4 -27 3 -17 -4 13 -10 13 -13 -5 -130
-7 -45 16 -73 44 -55 22 14 28 43 8 43 -8 0 -18 5 -21 11 -11 16 4 59 20 59 8
0 15 13 17 33 2 26 8 33 30 35 19 2 30 -3 38 -18 14 -26 9 -62 -9 -68 -11 -4
-13 2 -8 27 5 23 3 31 -8 31 -19 0 -41 -40 -23 -41 10 0 10 -2 1 -6 -7 -2 -13
-9 -13 -14 0 -6 5 -7 10 -4 6 4 16 -7 23 -24 l13 -30 23 35 c23 33 23 37 11
89 -16 68 -10 78 16 25 22 -46 34 -51 34 -15 0 41 -27 95 -52 104 -20 8 -21
10 -5 16 9 4 24 2 32 -5 25 -21 26 -6 2 41 -15 30 -29 45 -45 47 -19 3 -21 6
-11 18 34 41 76 -3 95 -100 l12 -61 1 57 c1 31 -7 83 -18 116 -13 44 -15 59
-6 55 7 -2 20 -18 28 -35 l15 -31 16 31 c16 31 43 52 67 52 8 0 7 -5 -3 -17
-23 -26 -48 -79 -65 -135 -20 -68 -10 -71 16 -5 22 54 65 103 129 147 18 12
35 20 38 18 9 -10 -35 -130 -61 -168 -15 -21 -44 -51 -66 -66 -58 -40 -39 -41
23 -1 52 33 108 89 108 108 0 5 4 9 10 9 5 0 8 -6 6 -12 -3 -7 -7 -25 -10 -40
-4 -15 -16 -36 -27 -47 -20 -19 -20 -19 -1 -25 11 -4 28 -16 38 -27 18 -20 18
-20 -11 -12 -44 11 -125 7 -163 -8 -33 -14 -32 -14 39 -14 66 0 73 -2 91 -26
14 -19 18 -33 12 -50 l-7 -24 -9 27 c-9 26 -60 58 -94 58 -16 0 -16 -1 -1 -18
10 -10 17 -29 17 -43 0 -23 -1 -22 -20 9 -17 28 -25 32 -64 32 -56 0 -65 -13
-20 -29 18 -7 34 -17 34 -22 0 -5 7 -9 15 -9 19 0 19 9 -2 32 -9 10 -12 18 -6
18 12 0 38 -29 47 -54 10 -29 39 0 34 36 -6 35 9 36 24 2 9 -20 9 -29 0 -42
-7 -9 -15 -25 -19 -35 -5 -16 -7 -16 -22 -3 -20 18 -115 56 -142 56 -19 0 -69
-44 -69 -60 0 -4 11 -5 24 -3 13 3 33 0 45 -6 16 -9 20 -9 15 2 -7 20 21 40
46 32 25 -8 27 -25 1 -18 -13 3 -23 -2 -30 -16 -10 -17 -6 -28 19 -63 18 -24
38 -47 46 -51 20 -11 44 10 44 38 0 13 6 25 13 28 6 2 9 8 5 12 -5 5 -17 0
-28 -10 -25 -22 -43 -9 -38 26 2 16 10 24 23 24 11 0 19 -5 18 -10 -1 -6 7
-11 17 -12 11 -1 20 7 24 22 4 14 16 30 29 36 22 12 22 12 3 -10 l-19 -21 34
5 34 6 -30 -14 c-21 -10 -32 -11 -37 -3 -9 13 -10 3 -2 -18 3 -8 11 -13 18
-10 7 3 19 -3 27 -12 13 -15 11 -16 -11 -10 -17 5 -21 4 -11 -2 10 -7 10 -11
1 -17 -7 -4 -17 -1 -22 6 -8 11 -9 10 -5 -3 9 -27 -12 -87 -34 -99 -12 -6 -30
-9 -40 -6 -14 4 -19 0 -19 -17 0 -27 -18 -46 -44 -46 -19 0 -19 0 0 21 17 19
18 23 2 67 -13 35 -14 48 -5 54 6 4 8 10 4 15 -5 4 -12 2 -16 -6 -5 -7 -11
-11 -14 -9 -3 1 -16 -8 -29 -21 -18 -20 -19 -24 -4 -18 16 6 18 2 14 -40 -3
-38 1 -51 19 -69 24 -24 31 -72 12 -91 -8 -8 -8 -17 1 -33 6 -12 10 -24 7 -26
-7 -7 -47 64 -47 82 0 9 -6 14 -12 12 -20 -7 -22 -77 -3 -98 9 -10 14 -23 11
-29 -4 -5 -2 -12 4 -16 5 -3 10 1 10 9 0 11 9 16 28 16 60 0 95 53 61 93 -10
12 -18 17 -19 10 0 -6 6 -14 13 -16 9 -4 9 -6 0 -6 -35 -3 -25 66 11 75 13 3
30 20 39 39 9 19 26 39 37 45 21 11 21 11 6 -13 -15 -22 -15 -27 -1 -53 17
-34 19 -92 4 -114 -8 -12 -10 -9 -6 14 3 16 0 45 -5 64 -8 30 -12 33 -19 19
-7 -11 -6 -24 2 -38 6 -12 9 -39 6 -60 -3 -22 -2 -39 2 -39 14 0 50 45 66 82
19 46 19 49 -1 41 -33 -13 -47 56 -17 89 21 23 36 23 58 -2 24 -27 18 -139
-11 -195 l-21 -40 23 -18 c13 -10 24 -24 24 -32 0 -8 -11 -22 -24 -32 l-23
-18 21 -40 c29 -56 35 -168 11 -195 -22 -24 -33 -25 -57 -3 -31 28 -18 103 16
90 20 -8 20 -5 1 41 -16 37 -52 82 -66 82 -4 0 -5 -17 -2 -39 3 -21 0 -48 -6
-60 -8 -14 -9 -27 -2 -38 7 -14 11 -11 19 19 5 19 8 48 5 64 -4 23 -2 26 6 14
15 -22 13 -80 -4 -114 -14 -26 -14 -31 1 -53 15 -24 15 -24 -6 -13 -11 6 -28
26 -37 45 -9 19 -26 36 -39 39 -36 9 -46 78 -11 75 9 0 9 -2 0 -6 -7 -2 -13
-10 -13 -16 1 -7 9 -2 19 10 34 40 -1 93 -61 93 -19 0 -28 5 -28 16 0 8 -5 12
-10 9 -6 -4 -8 -11 -4 -16 3 -6 -1 -18 -9 -27 -20 -24 -28 -62 -16 -84 12 -22
29 -24 29 -4 0 18 41 89 47 82 3 -2 -1 -14 -7 -26 -9 -16 -9 -25 -1 -33 19
-19 12 -67 -12 -91 -18 -18 -22 -31 -19 -69 4 -42 2 -46 -14 -40 -15 6 -14 2
4 -18 13 -13 26 -22 29 -21 3 2 9 -2 14 -9 4 -8 11 -10 16 -6 4 5 2 11 -4 15
-9 6 -8 19 5 54 16 44 15 48 -2 67 -19 21 -19 21 0 21 26 0 44 -19 44 -46 0
-17 5 -21 19 -17 10 3 28 0 40 -6 22 -12 43 -72 34 -99 -4 -13 -3 -14 5 -3 5
7 15 10 22 6 9 -6 9 -10 -1 -17 -10 -6 -6 -7 11 -2 22 6 24 5 11 -10 -8 -9
-20 -15 -28 -12 -28 11 -11 -16 20 -30 l32 -15 -30 6 c-16 3 -36 6 -42 7 -7 1
-13 8 -13 16 0 8 -6 12 -15 8 -18 -7 -20 10 -2 18 10 5 10 7 0 12 -7 3 -13 16
-13 29 0 28 -24 49 -44 38 -8 -4 -28 -27 -46 -51 -25 -35 -29 -46 -19 -63 7
-14 17 -19 30 -16 26 7 24 -10 -1 -18 -25 -8 -53 12 -46 32 5 11 1 11 -15 2
-12 -6 -32 -9 -45 -6 -13 2 -24 1 -24 -3 0 -16 50 -60 69 -60 27 0 122 38 142
56 15 13 17 13 22 -3 4 -10 12 -26 19 -35 9 -13 9 -22 0 -42 -15 -34 -30 -33
-24 2 5 36 -24 65 -34 36 -9 -25 -35 -54 -47 -54 -6 0 -2 9 8 20 27 30 14 32
-37 6 -26 -13 -44 -26 -41 -30 4 -3 26 -6 50 -6 38 0 46 4 63 33 19 30 20 31
20 8 0 -14 -7 -33 -17 -43 -15 -17 -15 -18 1 -18 34 0 85 32 94 58 l9 27 7
-24 c6 -17 2 -31 -12 -50 -18 -24 -25 -26 -91 -26 -71 0 -72 0 -39 -14 38 -15
119 -19 163 -8 29 8 29 8 11 -12 -10 -11 -27 -23 -38 -27 -19 -6 -19 -6 1 -25
11 -11 23 -32 27 -47 3 -15 8 -34 10 -42 3 -8 -14 6 -36 32 -34 40 -127 108
-147 108 -3 0 13 -15 35 -32 23 -18 53 -49 67 -68 25 -33 70 -158 61 -167 -8
-8 -92 54 -121 89 -16 18 -37 54 -48 81 -25 60 -33 54 -14 -11 17 -56 42 -109
65 -134 10 -13 11 -18 3 -18 -24 0 -51 21 -67 52 l-16 31 -15 -31 c-8 -17 -21
-33 -28 -35 -9 -4 -7 11 6 55 11 33 19 85 18 116 l-1 57 -12 -61 c-19 -97 -61
-141 -95 -100 -10 12 -8 15 10 18 23 3 50 41 64 88 8 25 7 25 -13 6 -14 -12
-28 -16 -39 -11 -16 6 -16 8 5 16 25 9 52 63 52 104 0 36 -12 31 -34 -15 -26
-53 -32 -43 -16 25 12 52 12 56 -11 89 l-23 35 -13 -30 c-7 -17 -17 -28 -23
-24 -5 3 -10 1 -10 -4 0 -6 6 -11 13 -12 9 0 9 -2 0 -6 -17 -6 2 -43 22 -43
11 0 13 8 8 31 -5 25 -3 31 8 27 18 -6 23 -42 9 -68 -8 -15 -19 -20 -38 -18
-22 2 -28 9 -30 36 -2 18 -9 32 -17 32 -14 0 -25 21 -25 51 0 13 7 19 21 19
24 0 23 27 -3 43 -28 18 -51 -10 -44 -55 18 -117 18 -120 5 -130 -10 -7 -5 -8
17 -4 49 8 74 -16 74 -69 0 -39 3 -45 25 -51 14 -3 33 -3 42 0 15 5 14 3 -2
-10 -12 -9 -31 -13 -46 -10 -33 6 -49 -10 -49 -49 0 -17 -7 -40 -15 -51 -13
-18 -14 -16 -8 17 3 22 0 47 -10 65 -16 33 -13 54 10 54 21 0 12 34 -10 38
-13 3 -22 -6 -30 -27 -6 -17 -18 -31 -27 -32 -10 0 -11 -2 -2 -6 6 -2 12 -15
12 -27 0 -39 29 -121 50 -144 11 -12 31 -22 42 -22 17 0 19 3 10 12 -15 15
-15 51 0 66 31 31 87 -3 72 -42 -5 -13 1 -16 25 -16 24 0 36 7 52 32 l21 33
-4 -33 c-5 -32 -4 -32 41 -33 25 -1 36 -4 24 -6 -12 -2 -27 -12 -35 -21 -7 -8
-8 -13 -2 -9 6 3 25 1 43 -6 33 -12 41 -24 16 -24 -8 0 -15 4 -15 9 0 5 -4 7
-9 4 -14 -9 -63 12 -56 24 3 5 1 10 -4 10 -6 0 -11 -4 -11 -10 0 -5 -12 -10
-27 -10 -54 0 -58 -17 -6 -25 76 -10 79 -20 5 -18 -138 5 -183 16 -213 52 -50
61 -61 156 -32 286 16 75 16 77 -7 146 -20 63 -22 79 -14 157 11 108 11 195 1
246 -10 48 -15 43 -27 -30 -7 -40 -6 -97 2 -179 11 -116 11 -124 -12 -192
l-23 -71 18 -85 c27 -130 7 -249 -49 -296 -18 -15 -108 -31 -198 -34 -74 -2
-71 8 5 18 52 8 48 25 -5 25 -16 0 -28 5 -28 10 0 6 -5 10 -11 10 -5 0 -8 -4
-5 -9 7 -10 -42 -33 -55 -26 -5 4 -9 2 -9 -3 0 -5 -7 -9 -15 -9 -8 0 -15 4
-15 9 0 7 19 12 48 11 6 -1 12 3 12 9 0 5 6 6 13 2 9 -6 8 -3 -1 8 -8 9 -23
19 -35 21 -12 2 -1 5 24 6 45 1 46 1 41 33 l-4 33 21 -32 c16 -26 28 -33 52
-33 24 0 30 3 25 16 -10 27 12 54 44 54 24 0 31 -5 36 -27 4 -15 2 -34 -6 -46
-11 -19 -10 -19 18 -14 16 3 34 1 41 -6 8 -8 11 -8 11 0 0 6 -5 13 -10 15 -6
2 -2 19 9 42 11 21 23 59 27 85 4 25 12 49 18 53 7 5 4 8 -6 8 -18 0 -26 34
-10 43 4 2 2 3 -4 1 -6 -1 -16 2 -22 8 -6 6 -18 8 -26 5 -20 -8 -21 -37 -2
-37 22 0 25 -22 9 -54 -10 -18 -13 -43 -10 -65 6 -33 5 -35 -8 -17 -8 11 -15
34 -15 52 0 38 -12 48 -58 50 -18 0 -38 7 -45 14 -9 10 -9 11 1 6 7 -4 26 -5
42 -1 27 6 30 10 30 46 0 53 28 81 72 73 23 -4 29 -3 19 4 -13 10 -13 13 5
130 7 45 -16 73 -44 55 -26 -16 -27 -43 -3 -43 14 0 21 -6 21 -19 0 -30 -11
-51 -25 -51 -8 0 -15 -14 -17 -32 -2 -27 -8 -34 -30 -36 -19 -2 -30 3 -38 18
-14 26 -9 62 9 68 11 4 13 -2 8 -27 -5 -23 -3 -31 8 -31 19 0 41 40 23 41 -10
0 -10 2 0 6 6 2 12 9 12 14 0 6 -5 7 -10 4 -6 -4 -16 7 -23 24 l-13 30 -23
-35 c-23 -33 -23 -37 -11 -89 16 -68 9 -79 -15 -25 -21 46 -35 52 -35 15 0
-41 27 -95 52 -104 20 -8 21 -10 5 -16 -9 -4 -24 -2 -32 5 -25 21 -26 6 -2
-41 15 -30 29 -45 45 -47 19 -3 21 -6 11 -18 -34 -41 -75 2 -94 99 l-13 62 -1
-57 c0 -31 7 -83 18 -116 13 -44 15 -59 6 -55 -7 2 -20 18 -28 35 l-15 31 -16
-31 c-16 -31 -43 -52 -67 -52 -8 0 -7 5 3 18 22 24 47 76 64 131 20 67 16 73
-10 16 -13 -27 -35 -65 -51 -83 -29 -35 -113 -97 -121 -89 -2 2 5 33 16 69 21
70 57 122 116 169 49 39 35 37 -29 -4 -51 -33 -107 -89 -107 -108 0 -5 -4 -9
-10 -9 -5 0 -8 6 -6 12 3 7 7 25 10 40 4 15 16 36 27 47 20 19 20 19 1 25 -11
4 -28 16 -38 27 -18 20 -18 20 11 12 44 -11 125 -7 163 8 33 14 32 14 -39 14
-66 0 -73 2 -91 26 -14 19 -18 33 -12 50 l7 24 9 -27 c9 -26 60 -58 94 -58 16
0 16 1 1 18 -10 10 -17 29 -17 43 0 23 1 22 20 -8 17 -29 25 -33 64 -33 56 0
65 13 20 29 -18 7 -34 17 -34 22 0 5 -7 9 -15 9 -22 0 -18 -17 7 -34 16 -12
18 -16 7 -16 -18 0 -43 25 -53 54 -10 29 -39 0 -34 -36 6 -35 -9 -36 -24 -2
-9 20 -9 29 0 42 7 9 15 25 19 35 5 16 7 16 22 3 20 -18 115 -56 142 -56 19 0
69 44 69 60 0 4 -11 5 -24 3 -13 -3 -33 0 -45 6 -16 9 -20 9 -15 -2 7 -20 -21
-40 -46 -32 -25 8 -27 25 -1 18 13 -3 23 2 30 16 10 17 6 28 -19 63 -18 24
-38 47 -46 51 -20 11 -44 -10 -44 -38 0 -13 -6 -25 -12 -28 -7 -2 -10 -8 -6
-12 5 -5 17 0 28 10 25 22 43 9 38 -26 -2 -16 -10 -24 -23 -24 -11 0 -19 5
-18 10 1 6 -7 12 -18 12 -10 1 -19 -4 -19 -11 0 -7 -6 -13 -12 -14 -7 -1 -26
-4 -43 -7 l-30 -6 33 15 c30 14 47 41 19 30 -8 -3 -20 3 -28 12 -13 15 -11 16
11 10 17 -5 21 -4 11 2 -10 7 -10 11 -1 17 7 4 17 1 22 -6 8 -11 9 -10 5 3 -9
26 12 87 33 98 10 5 27 10 37 10 11 0 23 12 30 30 8 21 18 30 33 30 19 0 20
-1 6 -16 -20 -19 -20 -35 -1 -81 12 -29 13 -38 3 -46 -10 -7 -10 -10 0 -14 6
-2 12 -11 12 -19 0 -9 5 -12 11 -8 8 4 8 9 0 17 -13 13 -15 31 -3 23 5 -3 19
6 30 19 26 30 29 43 6 24 -15 -12 -16 -9 -12 36 3 40 0 52 -19 71 -24 24 -31
72 -12 91 8 8 8 17 -1 33 -6 12 -9 24 -7 27 7 6 40 -55 48 -87 l5 -25 20 31
c10 17 25 29 32 27 6 -3 12 3 12 12 0 12 -6 15 -20 10 -14 -4 -20 -2 -20 8 0
8 -7 20 -15 27 -9 7 -14 19 -11 26 3 7 1 16 -4 19 -6 4 -10 -1 -10 -9 0 -11
-9 -16 -28 -16 -59 0 -97 -66 -57 -100 9 -8 15 -8 15 -2 0 6 -6 13 -12 15 -10
4 -10 6 -1 6 35 3 25 -66 -11 -75 -13 -3 -30 -20 -39 -39 -9 -19 -26 -39 -37
-45 -21 -11 -21 -11 -6 13 15 22 15 27 1 53 -17 34 -19 92 -4 114 8 12 10 9 6
-14 -3 -16 0 -45 5 -64 8 -30 12 -33 19 -19 7 11 6 24 -2 38 -6 12 -9 39 -6
60 3 22 2 39 -2 39 -14 0 -50 -45 -66 -82 -19 -46 -19 -49 1 -41 33 13 47 -56
17 -89 -21 -23 -36 -23 -57 1 -31 34 -19 158 20 215 11 16 10 21 -12 38 -30
25 -30 41 0 66 22 17 23 22 12 38 -39 57 -51 181 -20 215 21 23 32 24 56 2 32
-28 18 -103 -17 -90 -13 6 -15 3 -10 -16 12 -37 39 -79 62 -94 21 -14 21 -13
16 25 -3 21 0 49 6 61 8 14 9 27 2 38 -7 14 -11 11 -19 -19 -5 -19 -8 -48 -5
-64 4 -23 2 -26 -6 -14 -15 22 -13 80 4 114 14 26 14 31 -1 53 -15 24 -15 24
6 13 11 -6 28 -26 37 -45 9 -19 26 -36 39 -39 36 -9 46 -78 11 -75 -9 0 -9 2
1 6 6 2 12 9 12 15 0 6 -6 6 -15 -2 -40 -34 -2 -100 57 -100 19 0 28 -5 28
-16 0 -8 5 -12 10 -9 6 4 8 11 4 16 -3 6 1 18 9 27 20 24 28 62 16 84 -12 22
-29 24 -29 4 0 -18 -41 -89 -47 -82 -3 2 1 14 7 26 9 16 9 25 1 33 -19 19 -12
67 12 91 19 19 22 31 19 71 -4 45 -3 48 12 36 25 -21 19 -3 -9 27 -14 15 -25
22 -25 17 0 -6 -4 -3 -10 5 -5 8 -12 11 -17 7 -4 -5 -2 -11 4 -15 9 -6 8 -19
-5 -54 -16 -44 -15 -48 2 -67 19 -21 19 -21 0 -21 -27 0 -44 19 -44 48 0 14
-4 21 -11 17 -5 -4 -21 -4 -35 -1 -30 8 -58 66 -49 99 5 16 4 18 -3 8 -6 -7
-15 -10 -22 -6 -9 6 -9 10 1 17 10 6 6 7 -11 2 -22 -6 -24 -5 -11 10 8 9 20
15 28 12 28 -11 11 16 -19 30 l-33 15 30 -6 c17 -3 36 -6 43 -7 6 -1 12 -7 12
-14 0 -7 9 -12 19 -11 11 0 19 6 18 12 -1 5 7 10 18 10 13 0 21 -8 23 -24 5
-35 -13 -48 -38 -26 -11 10 -23 15 -28 10 -4 -4 -1 -10 6 -12 6 -3 12 -15 12
-28 0 -28 24 -49 44 -38 8 4 28 27 46 51 25 35 29 46 19 63 -7 14 -17 19 -30
16 -26 -7 -24 10 1 18 25 8 53 -12 46 -32 -5 -11 -1 -11 15 -2 12 6 32 9 45 6
13 -2 24 -1 24 3 0 16 -50 60 -69 60 -27 0 -122 -38 -142 -56 -15 -13 -17 -13
-22 3 -4 10 -12 26 -19 35 -9 13 -9 22 0 42 15 34 30 33 24 -2 -5 -36 24 -65
34 -36 10 29 35 54 53 54 11 0 9 -4 -7 -16 -25 -17 -29 -34 -7 -34 8 0 15 4
15 9 0 5 16 15 34 22 45 16 36 29 -20 29 -39 0 -47 -4 -64 -32 -19 -31 -20
-32 -20 -9 0 14 7 33 17 43 15 17 15 18 -1 18 -34 0 -85 -32 -94 -58 l-9 -27
-7 24 c-6 17 -2 31 12 50 18 24 25 26 91 26 71 0 72 0 39 14 -38 15 -119 19
-163 8 -29 -8 -29 -8 -11 12 10 11 27 23 38 27 19 6 19 6 -1 25 -11 11 -23 32
-27 47 -3 15 -7 33 -10 40 -2 6 1 12 6 12 6 0 10 -4 10 -9 0 -19 56 -75 107
-108 64 -41 78 -43 29 -4 -59 47 -95 99 -116 169 -11 36 -18 67 -16 69 6 7 86
-50 115 -80 13 -14 36 -52 52 -84 26 -50 29 -53 23 -23 -7 43 -49 138 -71 162
-11 12 -12 18 -4 18 24 0 51 -21 67 -52 l16 -31 15 31 c8 17 21 33 28 35 9 4
7 -11 -6 -55 -11 -33 -18 -85 -18 -116 l1 -57 13 62 c19 97 60 140 94 99 10
-12 8 -15 -11 -18 -16 -2 -30 -17 -45 -47 -24 -47 -23 -62 2 -41 8 7 23 9 32
5 16 -6 15 -8 -5 -16 -25 -9 -52 -63 -52 -104 0 -37 14 -31 35 15 24 54 31 43
15 -25 -12 -52 -12 -56 11 -89 l23 -35 13 30 c7 17 17 28 23 24 5 -3 10 -1 10
4 0 6 -6 11 -12 12 -10 0 -10 2 -1 6 17 6 -2 43 -22 43 -11 0 -13 -8 -8 -31 5
-25 3 -31 -8 -27 -18 6 -23 42 -9 68 8 15 19 20 38 18 22 -2 28 -9 30 -35 2
-19 9 -33 17 -33 14 0 25 -21 25 -51 0 -13 -7 -19 -21 -19 -24 0 -23 -27 3
-43 12 -8 21 -7 33 3 17 15 17 15 -1 134 -5 27 -2 41 7 48 10 7 4 8 -19 4 -44
-8 -72 20 -72 73 0 36 -3 40 -30 46 -16 4 -35 4 -42 0 -7 -4 -4 1 7 10 12 10
30 14 46 11 33 -6 49 10 49 49 0 17 7 40 15 51 13 18 14 16 8 -17 -3 -22 0
-47 10 -65 16 -32 13 -54 -9 -54 -19 0 -18 -29 2 -37 8 -3 20 -1 26 5 6 6 16
9 22 8 6 -2 8 -1 4 1 -16 9 -8 43 10 43 10 0 13 3 6 8 -6 4 -14 28 -18 53 -4
26 -16 64 -27 85 -11 23 -15 40 -9 42 5 2 10 9 10 15 0 8 -3 8 -11 0 -7 -7
-25 -9 -43 -6 -26 5 -29 3 -18 -8 15 -17 16 -51 0 -67 -31 -31 -87 3 -72 42 5
13 -1 16 -25 16 -25 0 -36 -7 -49 -30 -22 -38 -33 -38 -22 0 l9 30 -47 1 c-26
1 -37 4 -25 6 12 2 27 12 35 21 9 11 10 14 1 8 -7 -4 -13 -3 -13 2 0 6 -6 10
-12 9 -29 -1 -48 4 -48 11 0 5 7 9 15 9 8 0 15 -4 15 -9 0 -5 4 -7 9 -4 14 9
63 -12 56 -24 -3 -5 -1 -10 4 -10 6 0 11 5 11 10 0 6 12 10 28 10 53 0 57 17
5 25 -27 3 -54 9 -60 13 -14 9 103 5 181 -6z m-547 -1429 c-1 -235 -2 -45 -2
422 0 468 1 660 2 428 2 -232 2 -614 0 -850z m1400 -6 c-1 -232 -2 -42 -2 423
0 465 1 655 2 422 2 -232 2 -612 0 -845z m-1392 -494 c4 -13 10 -23 14 -23 3
0 7 -17 9 -37 3 -41 26 -83 45 -83 6 0 4 5 -5 11 -10 5 -18 14 -18 19 0 5 13
2 28 -7 29 -17 69 -73 51 -73 -5 0 -14 10 -19 23 -6 16 -9 17 -9 5 -1 -21 36
-48 64 -48 12 0 26 -5 33 -12 9 -9 12 -9 12 3 0 8 3 10 8 4 12 -17 51 -35 74
-35 16 0 19 -3 10 -8 -7 -5 -10 -15 -7 -24 4 -11 -2 -15 -25 -15 -35 0 -40 13
-7 23 21 7 21 7 2 15 -28 11 -47 11 -40 0 3 -5 -5 -11 -17 -13 -13 -2 -22 -9
-21 -16 2 -6 -2 -12 -7 -12 -7 0 -8 13 -4 35 6 33 5 35 -25 41 -17 4 -40 17
-50 30 l-19 24 1 -32 c1 -32 2 -33 38 -30 20 2 39 -1 43 -6 10 -16 -4 -42 -23
-42 -14 1 -14 2 1 14 10 7 15 16 11 19 -11 12 -40 7 -53 -8 -11 -13 -10 -14 5
-9 13 5 16 4 11 -4 -8 -13 -56 -12 -56 1 0 5 -12 8 -27 5 -36 -5 -59 19 -55
55 2 15 0 27 -5 27 -13 0 -14 48 -1 56 8 5 9 2 5 -9 -3 -10 -2 -17 3 -17 13 0
24 46 15 60 -5 8 -11 5 -21 -7 -12 -16 -13 -16 -14 -2 0 19 26 33 42 23 6 -4
8 -26 5 -51 -3 -33 -2 -41 7 -34 7 6 23 7 37 4 l24 -6 -26 21 c-15 12 -29 36
-33 53 -6 30 -8 31 -41 25 -24 -5 -35 -3 -35 5 0 7 3 9 7 6 10 -11 32 13 26
29 -4 10 0 12 12 8 15 -6 16 -4 6 14 -6 11 -10 33 -10 49 l1 28 8 -25 c4 -14
10 -35 15 -47z m1394 -4 c-10 -19 -9 -21 4 -16 11 4 17 -1 19 -16 2 -12 9 -21
16 -19 6 1 12 -3 12 -8 0 -7 -13 -8 -35 -4 -33 6 -35 5 -41 -25 -4 -17 -17
-40 -30 -50 l-24 -19 32 1 c32 1 33 2 30 38 -2 20 1 39 6 43 16 10 42 -4 42
-23 -1 -14 -2 -14 -14 2 -10 12 -16 15 -21 7 -9 -14 2 -60 15 -60 5 0 6 7 3
17 -4 11 -3 14 5 9 13 -8 12 -56 -1 -56 -5 0 -8 -12 -5 -27 4 -32 -19 -60 -45
-55 -10 2 -32 -2 -48 -9 -24 -9 -32 -9 -42 1 -10 10 -8 12 7 6 16 -5 17 -4 6
9 -13 15 -42 20 -53 8 -4 -3 1 -12 11 -19 15 -12 15 -13 1 -14 -18 0 -33 26
-23 42 3 5 23 8 43 5 36 -4 37 -3 38 30 l1 33 -19 -24 c-10 -13 -33 -26 -50
-30 -30 -6 -31 -8 -25 -41 4 -22 3 -35 -4 -35 -5 0 -9 6 -7 12 1 7 -8 14 -21
16 -12 2 -20 8 -17 13 8 11 -7 12 -38 0 -14 -6 -29 -6 -38 0 -11 7 -9 9 7 9
27 0 74 22 74 35 0 6 5 3 11 -5 8 -11 12 -12 16 -2 2 6 15 12 27 12 26 0 66
26 66 43 0 7 -5 4 -11 -5 -5 -10 -14 -18 -19 -18 -17 0 23 56 52 73 15 9 28
12 28 7 0 -5 -8 -14 -17 -19 -10 -6 -13 -11 -6 -11 17 0 43 40 43 67 0 13 5
23 11 23 8 0 8 5 -1 15 -7 8 -9 15 -4 15 11 0 34 47 35 74 2 15 3 13 6 -6 2
-15 -1 -37 -8 -49z"/>
<path d="M787 1919 c-15 -9 -15 -12 -3 -25 15 -14 46 -10 46 7 0 5 4 9 10 9 5
0 7 -8 4 -17 -5 -14 -4 -15 4 -4 7 9 12 10 16 2 4 -6 2 -11 -4 -11 -6 0 -9
-12 -8 -26 2 -15 -3 -29 -10 -31 -8 -3 -10 2 -6 14 5 17 5 17 -6 -1 -9 -13 -9
-24 -1 -42 12 -26 31 -30 63 -13 19 10 20 9 13 -7 -5 -11 -10 -37 -13 -59 -2
-22 -8 -45 -14 -52 -6 -7 -5 -14 2 -18 5 -3 10 0 10 8 0 10 8 13 24 10 26 -5
37 16 55 112 5 28 13 58 17 69 6 16 5 17 -14 7 -26 -14 -49 -4 -105 45 -39 36
-51 40 -80 23z"/>
<path d="M1223 1896 c-59 -52 -80 -60 -107 -43 -22 15 -59 7 -43 -10 5 -4 12
-1 16 6 10 15 21 -16 40 -111 13 -60 31 -84 56 -74 9 3 15 0 15 -10 0 -8 5
-12 11 -8 8 4 8 9 0 17 -6 6 -11 26 -11 44 0 19 -7 47 -15 63 l-15 29 28 -16
c48 -27 87 4 63 50 -8 14 -10 16 -6 4 3 -12 1 -17 -7 -14 -7 2 -12 16 -10 31
1 14 -2 26 -8 26 -6 0 -8 5 -4 11 4 8 9 7 16 -2 8 -11 9 -10 4 4 -3 9 -1 17 4
17 6 0 10 -4 10 -9 0 -17 31 -21 46 -6 13 12 12 15 -5 25 -30 15 -38 13 -78
-24z"/>
<path d="M1005 1433 c-3 -8 -5 -27 -5 -41 0 -32 -9 -46 -32 -55 -12 -4 -19 0
-23 14 -5 16 -13 20 -31 16 -16 -3 -24 0 -24 10 0 8 -5 11 -10 8 -8 -5 -7 -11
1 -21 6 -7 9 -21 5 -29 -3 -9 1 -32 9 -52 8 -19 15 -37 15 -38 0 -2 -13 2 -29
8 -47 18 -79 -22 -50 -63 9 -13 10 -12 5 3 -3 9 -1 17 4 17 10 0 14 -13 11
-42 -1 -10 3 -18 9 -18 6 0 8 -5 4 -11 -4 -8 -9 -7 -16 2 -8 11 -9 10 -4 -3 3
-10 1 -18 -4 -18 -6 0 -10 4 -10 9 0 17 -31 21 -46 6 -13 -12 -12 -15 5 -25
30 -15 38 -13 78 24 56 49 79 59 105 45 19 -10 20 -9 14 7 -7 19 -26 109 -26
125 0 5 6 9 13 9 7 0 24 24 38 53 13 28 29 52 34 52 6 0 21 -24 34 -52 22 -47
51 -71 51 -43 0 6 -6 10 -14 10 -16 0 -26 21 -26 58 0 15 -4 32 -8 38 -10 16
-70 13 -77 -3z"/>
<path d="M1200 1376 c0 -9 -8 -12 -24 -9 -20 4 -26 -1 -35 -30 -7 -19 -16 -57
-20 -83 -5 -27 -12 -57 -16 -68 -7 -16 -6 -17 13 -7 26 14 49 4 105 -45 40
-37 48 -39 78 -24 17 10 18 13 5 25 -15 15 -46 11 -46 -6 0 -5 -4 -9 -10 -9
-5 0 -7 8 -4 18 5 13 4 14 -4 3 -7 -9 -12 -10 -16 -2 -4 6 -2 11 4 11 6 0 9
12 8 26 -2 15 3 29 10 31 8 3 10 -2 6 -14 -5 -15 -4 -15 5 -3 29 41 -3 81 -50
63 -16 -6 -29 -10 -29 -8 0 1 7 19 15 40 9 20 13 45 10 55 -3 10 -1 21 5 25
13 8 13 25 0 25 -5 0 -10 -6 -10 -14z"/>
</g>
</svg>
